# xmcd CD database file
#
# Track frame offsets:
#	150
#	3378
#	21072
#	41268
#	64730
#	86276
#	107453
#	129428
#	145383
#	169967
#	190658
#	208225
#
# Disc length: 2902 seconds
#
# Revision: 1
# Processed by: cddbd v1.5.1PL2 Copyright (c) Steve Scherf et al.
# Submitted via: CD2WAV32(JP) R3.22
#
DISCID=980b540c
DTITLE=APPLE progect - APPLE Leaf
DYEAR=2005
DGENRE=Vocal
TTITLE0=prologue -Stay with me-
TTITLE1=REM - Stay. -UK Acid Version-
TTITLE2=REM - 戸惑い e・mo・tion -MMK Mix-
TTITLE3=みとせのりこ - White Album -Chirstmas Eve-
TTITLE4=茶山莉子 - 優しさの贈り物 -Alisa-
TTITLE5=楠鈴音 - 何時か二人の雨傘 -Cecil-
TTITLE6=有馬美咲 - 幸せ願う
TTITLE7=REM /　そう、きっと
TTITLE8=KIRIKO - 月陽炎 -refraine-
TTITLE9=真理絵 - image ～自分の空～
TTITLE10=霜月はるか - 夢色のなつ
TTITLE11=epilogue -gift of your tenderness-
EXTD=
EXTT0=
EXTT1=曲:まにょっ 編:Manack 詞:みやぞう
EXTT2=曲:Manack 編:橋本彦士 詞:みやぞう
EXTT3=曲:石川真也 編:ぱきら+Manack 詞:AQUAPLUS+みやぞう
EXTT4=曲:Manack 詞:みやぞう
EXTT5=曲:Manack 詞:みやぞう
EXTT6=曲:Manack 詞:有馬美咲
EXTT7=曲:Manack 詞:みやぞう
EXTT8=曲:Manack 詞:みやぞう
EXTT9=曲:Manack 詞:真理絵
EXTT10=曲:Manack 編:REM 詞:みやぞう
EXTT11=
PLAYORDER=
